<svg xmlns="http://www.w3.org/2000/svg" width="820" height="260" viewBox="0 0 820 260" role="img" aria-label="Daily jsDelivr requests and hits for major-ai-skills">
  <defs>
    <linearGradient id="bg" x1="0" y1="0" x2="1" y2="1"><stop stop-color="#0d1117"/><stop offset="1" stop-color="#161b22"/></linearGradient>
    <linearGradient id="fill-jsdelivr" x1="0" y1="0" x2="0" y2="1"><stop stop-color="#e84d3d" stop-opacity=".5"/><stop offset="1" stop-color="#e84d3d" stop-opacity=".03"/></linearGradient>
  </defs>
  <rect width="820" height="260" rx="14" fill="url(#bg)"/>
  <text x="28" y="35" fill="#f0f6fc" font-family="Arial, sans-serif" font-size="19" font-weight="700">major-ai-skills · daily jsDelivr requests &amp; hits</text>
  <text x="28" y="59" fill="#8b949e" font-family="Arial, sans-serif" font-size="13">Last 30 days · 7,237 requests · updated 2026-09-14 18:04 UTC</text>
  <line x1="52" y1="76" x2="52" y2="204" stroke="#30363d"/>
  <line x1="52" y1="204" x2="790" y2="204" stroke="#30363d"/>
  <polygon points="52,204 52.0,204.0 77.4,204.0 102.9,204.0 128.3,204.0 153.8,204.0 179.2,204.0 204.7,204.0 230.1,204.0 255.6,204.0 281.0,204.0 306.5,204.0 331.9,204.0 357.4,203.9 382.8,204.0 408.3,203.8 433.7,203.6 459.2,204.0 484.6,203.9 510.1,204.0 535.5,203.9 561.0,203.8 586.4,202.9 611.9,202.8 637.3,201.3 662.8,188.3 688.2,157.5 713.7,157.5 739.1,117.4 764.6,76.0 790.0,104.6 790,204" fill="url(#fill-jsdelivr)"/><polyline points="52.0,204.0 77.4,204.0 102.9,204.0 128.3,204.0 153.8,204.0 179.2,204.0 204.7,204.0 230.1,204.0 255.6,204.0 281.0,204.0 306.5,204.0 331.9,204.0 357.4,203.9 382.8,204.0 408.3,203.8 433.7,203.6 459.2,204.0 484.6,203.9 510.1,204.0 535.5,203.9 561.0,203.8 586.4,202.9 611.9,202.8 637.3,201.3 662.8,188.3 688.2,157.5 713.7,157.5 739.1,117.4 764.6,76.0 790.0,104.6" fill="none" stroke="#e84d3d" stroke-width="3" stroke-linejoin="round" stroke-linecap="round"/>
  <text x="16" y="81" fill="#8b949e" font-family="Arial, sans-serif" font-size="11">2160</text>
  <text x="35" y="208" fill="#8b949e" font-family="Arial, sans-serif" font-size="11">0</text>
  <text x="52" y="230" fill="#8b949e" font-family="Arial, sans-serif" font-size="11">2026-08-14</text>
  <text x="790" y="230" fill="#8b949e" text-anchor="end" font-family="Arial, sans-serif" font-size="11">2026-09-12</text>
  
</svg>
